<svg xmlns="http://www.w3.org/2000/svg" width="840" height="324" viewBox="0 0 840 324" role="img" aria-label="Cap And Success Summary">
<rect width="840" height="324" fill="#ffffff" />
<text x="24" y="24" font-size="18" font-family="Arial, sans-serif" font-weight="700" fill="#111827">Cap And Success Summary</text>
<text x="360" y="54" text-anchor="middle" font-size="12" fill="#111827">Compact rules</text>
<text x="495" y="54" text-anchor="middle" font-size="12" fill="#111827">Compact cap</text>
<text x="630" y="54" text-anchor="middle" font-size="12" fill="#111827">Full cap</text>
<text x="28" y="97" font-size="12" fill="#374151">Tiny project</text>
<rect x="315" y="76" width="90" height="24" rx="3" fill="#dcfce7" stroke="#16a34a" />
<text x="360" y="92" text-anchor="middle" font-size="11" fill="#166534">ok</text>
<rect x="450" y="76" width="90" height="24" rx="3" fill="#dcfce7" stroke="#16a34a" />
<text x="495" y="92" text-anchor="middle" font-size="11" fill="#166534">ok</text>
<rect x="585" y="76" width="90" height="24" rx="3" fill="#dcfce7" stroke="#16a34a" />
<text x="630" y="92" text-anchor="middle" font-size="11" fill="#166534">ok</text>
<text x="28" y="131" font-size="12" fill="#374151">Normal handoff</text>
<rect x="315" y="110" width="90" height="24" rx="3" fill="#dcfce7" stroke="#16a34a" />
<text x="360" y="126" text-anchor="middle" font-size="11" fill="#166534">ok</text>
<rect x="450" y="110" width="90" height="24" rx="3" fill="#dcfce7" stroke="#16a34a" />
<text x="495" y="126" text-anchor="middle" font-size="11" fill="#166534">ok</text>
<rect x="585" y="110" width="90" height="24" rx="3" fill="#dcfce7" stroke="#16a34a" />
<text x="630" y="126" text-anchor="middle" font-size="11" fill="#166534">ok</text>
<text x="28" y="165" font-size="12" fill="#374151">Large ontology</text>
<rect x="315" y="144" width="90" height="24" rx="3" fill="#dcfce7" stroke="#16a34a" />
<text x="360" y="160" text-anchor="middle" font-size="11" fill="#166534">ok</text>
<rect x="450" y="144" width="90" height="24" rx="3" fill="#dcfce7" stroke="#16a34a" />
<text x="495" y="160" text-anchor="middle" font-size="11" fill="#166534">ok</text>
<rect x="585" y="144" width="90" height="24" rx="3" fill="#fee2e2" stroke="#dc2626" />
<text x="630" y="160" text-anchor="middle" font-size="11" fill="#991b1b">fail</text>
<text x="28" y="199" font-size="12" fill="#374151">Stale handoff</text>
<rect x="315" y="178" width="90" height="24" rx="3" fill="#dcfce7" stroke="#16a34a" />
<text x="360" y="194" text-anchor="middle" font-size="11" fill="#166534">ok</text>
<rect x="450" y="178" width="90" height="24" rx="3" fill="#dcfce7" stroke="#16a34a" />
<text x="495" y="194" text-anchor="middle" font-size="11" fill="#166534">ok</text>
<rect x="585" y="178" width="90" height="24" rx="3" fill="#dcfce7" stroke="#16a34a" />
<text x="630" y="194" text-anchor="middle" font-size="11" fill="#166534">ok</text>
<text x="28" y="233" font-size="12" fill="#374151">Conflicting ontology</text>
<rect x="315" y="212" width="90" height="24" rx="3" fill="#dcfce7" stroke="#16a34a" />
<text x="360" y="228" text-anchor="middle" font-size="11" fill="#166534">ok</text>
<rect x="450" y="212" width="90" height="24" rx="3" fill="#dcfce7" stroke="#16a34a" />
<text x="495" y="228" text-anchor="middle" font-size="11" fill="#166534">ok</text>
<rect x="585" y="212" width="90" height="24" rx="3" fill="#fee2e2" stroke="#dc2626" />
<text x="630" y="228" text-anchor="middle" font-size="11" fill="#991b1b">fail</text>
<text x="28" y="267" font-size="12" fill="#374151">Missing handoff</text>
<rect x="315" y="246" width="90" height="24" rx="3" fill="#dcfce7" stroke="#16a34a" />
<text x="360" y="262" text-anchor="middle" font-size="11" fill="#166534">ok</text>
<rect x="450" y="246" width="90" height="24" rx="3" fill="#dcfce7" stroke="#16a34a" />
<text x="495" y="262" text-anchor="middle" font-size="11" fill="#166534">ok</text>
<rect x="585" y="246" width="90" height="24" rx="3" fill="#dcfce7" stroke="#16a34a" />
<text x="630" y="262" text-anchor="middle" font-size="11" fill="#166534">ok</text>
<text x="28" y="301" font-size="12" fill="#374151">Multi-scope repo</text>
<rect x="315" y="280" width="90" height="24" rx="3" fill="#dcfce7" stroke="#16a34a" />
<text x="360" y="296" text-anchor="middle" font-size="11" fill="#166534">ok</text>
<rect x="450" y="280" width="90" height="24" rx="3" fill="#dcfce7" stroke="#16a34a" />
<text x="495" y="296" text-anchor="middle" font-size="11" fill="#166534">ok</text>
<rect x="585" y="280" width="90" height="24" rx="3" fill="#dcfce7" stroke="#16a34a" />
<text x="630" y="296" text-anchor="middle" font-size="11" fill="#166534">ok</text>
</svg>
